<svg xmlns="http://www.w3.org/2000/svg" viewBox="0 0 640 320" role="img" aria-label="Bulky plastic disposal bay illustration">
  <rect width="640" height="320" fill="#e7f0ee"/><path d="M0 239c130-32 207 23 351-17 119-33 208-26 289-5v103H0Z" fill="#b0cf84"/><path d="M72 226h498" stroke="#6f9176" stroke-width="9" stroke-linecap="round"/><rect x="153" y="118" width="334" height="105" rx="13" fill="#47745f"/><path d="M132 121h376l-31-48H163Z" fill="#315d4a"/><rect x="187" y="143" width="58" height="57" rx="8" fill="#8fcde2"/><rect x="291" y="143" width="58" height="57" rx="8" fill="#8fcde2"/><rect x="395" y="143" width="58" height="57" rx="8" fill="#8fcde2"/><path d="m215 154-10 18h20Zm104 0-10 18h20Zm104 0-10 18h20Z" fill="#fff"/><path d="M101 208h75l-12-45h-51Zm398 0h75l-12-45h-51Z" fill="#d19a60"/><path d="M317 55c0-20 16-36 36-36h8v72h-8c-20 0-36-16-36-36Z" fill="#4e9d62"/><path d="M350 80c23-5 39-20 47-44" fill="none" stroke="#2f7d4f" stroke-width="8" stroke-linecap="round"/>
</svg>
