<svg xmlns="http://www.w3.org/2000/svg" viewBox="0 0 640 320" role="img" aria-label="Market plastic collection wall illustration">
  <rect width="640" height="320" fill="#e7f3ee"/><path d="M0 240C165 202 280 254 415 220s160-30 225-6v106H0Z" fill="#a7d783"/><rect x="84" y="79" width="472" height="151" rx="14" fill="#fbfdfb" stroke="#2f7d4f" stroke-width="8"/><path d="M84 113h472" stroke="#2f7d4f" stroke-width="8"/><path d="M105 78h430l-28-42H132Z" fill="#e9a846"/><g fill="#74bad4"><rect x="128" y="136" width="70" height="69" rx="9"/><rect x="220" y="136" width="70" height="69" rx="9"/><rect x="312" y="136" width="70" height="69" rx="9"/><rect x="404" y="136" width="70" height="69" rx="9"/></g><g fill="#fff"><path d="m152 151 10 17h-20Z"/><path d="m244 151 10 17h-20Z"/><path d="m336 151 10 17h-20Z"/><path d="m428 151 10 17h-20Z"/></g><path d="M510 53c-9-26-42-35-62-12-17-16-47-7-50 16-3 22 17 38 53 61 38-27 60-43 59-65Z" fill="#ec8d88"/>
</svg>
