<svg xmlns="http://www.w3.org/2000/svg" viewBox="0 0 640 320" role="img" aria-label="Community plastic recovery booth illustration">
  <rect width="640" height="320" fill="#dff4e6"/><path d="M0 235C115 198 195 244 315 214s210-68 325-29v135H0Z" fill="#9bd177"/>
  <path d="M65 214h510" stroke="#6e9b65" stroke-width="8" stroke-linecap="round"/><rect x="247" y="90" width="144" height="130" rx="12" fill="#f9fcfa" stroke="#197a43" stroke-width="8"/><path d="M235 92h168l-20-42H255Z" fill="#268a4e"/><rect x="272" y="129" width="42" height="65" rx="7" fill="#6ab8d7"/><rect x="326" y="129" width="42" height="65" rx="7" fill="#79c86b"/><path d="M293 143l-10 18h20Zm55 0-10 18h20Z" fill="#fff"/><circle cx="116" cy="85" r="31" fill="#fff5be"/><path d="M116 35v16m0 68v16m50-50h-16m-68 0H66m85-35-12 12M93 108l-12 12m70 0-12-12M93 62 81 50" stroke="#e2a840" stroke-width="7" stroke-linecap="round"/>
</svg>
